<svg height="32" viewBox="0 0 48 48" width="32" xmlns="http://www.w3.org/2000/svg"><path d="m40 12s-4.585937-3.589844-10-4l-.488281.976563c4.894531 1.199218 7.140625 2.914062 9.488281 5.023437-4.046875-2.066406-8.039062-4-15-4-6.960937 0-10.953125 1.933594-15 4 2.347656-2.109375 5.019531-4.015625 9.488281-5.023437l-.488281-.976563c-5.679687.535156-10 4-10 4s-5.121094 7.425781-6 22c5.160156 5.953125 13 6 13 6l1.640625-2.183594c-2.785156-.96875-5.925781-2.695312-8.640625-5.816406 3.238281 2.449219 8.125 5 16 5s12.761719-2.550781 16-5c-2.714844 3.121094-5.855469 4.847656-8.640625 5.816406l1.640625 2.183594s7.839844-.046875 13-6c-.878906-14.574219-6-22-6-22zm-22.5 18c-1.933594 0-3.5-1.789062-3.5-4 0-2.210937 1.566406-4 3.5-4s3.5 1.789063 3.5 4c0 2.210938-1.566406 4-3.5 4zm13 0c-1.933594 0-3.5-1.789062-3.5-4 0-2.210937 1.566406-4 3.5-4s3.5 1.789063 3.5 4c0 2.210938-1.566406 4-3.5 4z" fill="#fff"/></svg>