<?xml version="1.0" encoding="UTF-8" standalone="no"?>
<svg
   xmlns:dc="http://purl.org/dc/elements/1.1/"
   xmlns:cc="http://creativecommons.org/ns#"
   xmlns:rdf="http://www.w3.org/1999/02/22-rdf-syntax-ns#"
   xmlns:svg="http://www.w3.org/2000/svg"
   xmlns="http://www.w3.org/2000/svg"
   xmlns:sodipodi="http://sodipodi.sourceforge.net/DTD/sodipodi-0.dtd"
   xmlns:inkscape="http://www.inkscape.org/namespaces/inkscape"
   width="44.25235mm"
   height="11.155219mm"
   viewBox="0 0 44.25235 11.155219"
   version="1.1"
   id="svg3686"
   sodipodi:docname="logo.svg"
   inkscape:version="0.92.1 r15371">
  <sodipodi:namedview
     pagecolor="#ffffff"
     bordercolor="#666666"
     borderopacity="1"
     objecttolerance="10"
     gridtolerance="10"
     guidetolerance="10"
     inkscape:pageopacity="0"
     inkscape:pageshadow="2"
     inkscape:window-width="1920"
     inkscape:window-height="996"
     id="namedview21"
     showgrid="false"
     inkscape:zoom="8"
     inkscape:cx="28.797481"
     inkscape:cy="18.971305"
     inkscape:window-x="-9"
     inkscape:window-y="-9"
     inkscape:window-maximized="1"
     inkscape:current-layer="layer1" />
  <defs
     id="defs3680" />
  <metadata
     id="metadata3683">
    <rdf:RDF>
      <cc:Work
         rdf:about="">
        <dc:format>image/svg+xml</dc:format>
        <dc:type
           rdf:resource="http://purl.org/dc/dcmitype/StillImage" />
        <dc:title></dc:title>
      </cc:Work>
    </rdf:RDF>
  </metadata>
  <g
     id="layer1"
     transform="translate(-84.206011,-75.784509)">
    <text
       xml:space="preserve"
       style="font-style:normal;font-weight:normal;font-size:10.58333302px;line-height:1.25;font-family:sans-serif;letter-spacing:0px;word-spacing:0px;fill:#000000;fill-opacity:1;stroke:none;stroke-width:0.26458332"
       x="40.821426"
       y="141.2738"
       id="text3690"><tspan
         id="tspan3688"
         x="40.821426"
         y="150.92931"
         style="stroke-width:0.26458332" /></text>
    <path
       style="fill:#aa0000;stroke-width:0.17857143"
       d="m 318.4238,307.5326 v -20.98214 h 9.01786 9.01786 v 4.10714 4.10715 h -3.66072 -3.66071 v 4.10714 4.10714 h 3.39286 3.39285 v 3.92857 3.92857 h -3.39285 -3.39286 v 4.73215 4.73214 h 4.01786 4.01785 v 4.10714 4.10715 h -9.375 -9.375 z"
       id="path3712"
       transform="scale(0.26458333)" />
    <path
       style="fill:#ee2400;fill-opacity:1;stroke-width:0.17857143"
       d="m 338.60238,325.59347 v -2.92127 l 4.1169,-13.46266 c 2.2643,-7.40446 4.16274,-13.68363 4.21875,-13.95372 l 0.10185,-0.49107 h -3.68304 -3.68304 v -4.10715 -4.10714 h 9.55358 9.55357 v 4.02275 4.02276 l -4.10715,12.69196 c -2.25892,6.98058 -4.10714,12.76409 -4.10714,12.85225 0,0.09 1.80054,0.16028 4.10714,0.16028 h 4.10715 v 4.10714 4.10715 h -10.08929 -10.08928 z"
       id="path3714"
       transform="scale(0.26458333)" />
    <path
       style="fill:#ee2400;fill-opacity:1;stroke-width:0.17857143"
       d="m 318.4238,307.5326 v -20.98214 h 9.01786 9.01786 v 4.10714 4.10715 h -3.66072 -3.66071 v 4.10714 4.10714 h 3.39286 3.39285 v 3.92857 3.92857 h -3.39285 -3.39286 v 4.73215 4.73214 h 4.01786 4.01785 v 4.10714 4.10715 h -9.375 -9.375 z"
       id="path3716"
       transform="scale(0.26458333)" />
    <path
       style="fill:#464646;fill-opacity:1;stroke-width:0.04724703"
       d="m 110.82608,85.416515 c -1.1257,-0.184724 -1.77217,-0.752232 -1.97004,-1.729425 -0.0779,-0.384987 -0.0831,-3.629753 -0.006,-3.990629 0.10118,-0.475554 0.24912,-0.79263 0.49574,-1.062466 0.45528,-0.498147 1.27292,-0.772173 2.11843,-0.709977 0.77328,0.05688 1.25542,0.243737 1.69045,0.655129 0.50175,0.474491 0.66343,1.014042 0.70647,2.357549 l 0.0269,0.838636 h -1.45051 -1.45051 l 0.0142,1.137804 c 0.0132,1.062778 0.0202,1.142222 0.10591,1.204799 0.12949,0.09459 0.42043,0.08529 0.51244,-0.01638 0.12308,-0.135998 0.17304,-0.467685 0.17427,-1.156854 l 0.001,-0.649647 h 1.03943 1.03943 l -7.9e-4,0.342543 c -0.001,0.517483 -0.0827,1.186706 -0.17216,1.41482 -0.25469,0.649226 -0.77134,1.121412 -1.4098,1.288457 -0.33872,0.08862 -1.13497,0.129749 -1.46465,0.07565 z m 0.82682,-5.339001 c 0,-0.758372 -0.0566,-0.898575 -0.36348,-0.900046 -0.25634,-0.0013 -0.29798,0.115665 -0.29798,0.836613 v 0.627321 h 0.33073 0.33073 z"
       id="path3718" />
    <path
       style="fill:#464646;fill-opacity:1;stroke-width:0.04724703"
       d="m 115.64528,85.398021 c -0.12993,-0.03319 -0.35004,-0.122301 -0.48912,-0.198017 -0.49638,-0.270219 -0.6459,-0.759426 -0.61204,-2.002539 0.0329,-1.207384 0.11893,-1.310473 1.59725,-1.913691 0.77683,-0.316979 1.1006,-0.499491 1.13955,-0.642372 0.0415,-0.152109 0.0492,-0.869447 0.0118,-1.09574 -0.0389,-0.235042 -0.17176,-0.368916 -0.36624,-0.368916 -0.28893,0 -0.32512,0.09524 -0.35024,0.921737 l -0.0222,0.731909 h -1.00948 -1.00949 l 10e-4,-0.437037 c 0.001,-0.582056 0.0723,-1.043717 0.20521,-1.333261 0.2128,-0.463574 0.76984,-0.879417 1.40558,-1.049309 0.36972,-0.0988 1.34973,-0.109468 1.76643,-0.01923 0.55003,0.119115 1.06342,0.44918 1.30391,0.838295 0.23591,0.381707 0.24458,0.498811 0.26621,3.595124 l 0.0202,2.89388 h -1.06468 -1.06467 l -0.014,-0.309856 -0.014,-0.309859 -0.17454,0.23422 c -0.31307,0.42014 -0.94619,0.612878 -1.52636,0.464659 z m 1.5888,-1.291111 c 0.0866,-0.104209 0.12535,-2.237084 0.0406,-2.237084 -0.0298,0 -0.1764,0.12225 -0.32573,0.271671 -0.18458,0.184679 -0.28228,0.32462 -0.30512,0.437034 -0.11787,0.579987 -0.065,1.429205 0.0964,1.547341 0.11695,0.08563 0.41648,0.07413 0.49385,-0.01897 z"
       id="path3720" />
    <path
       style="fill:#464646;fill-opacity:1;stroke-width:0.04724703"
       d="m 121.50391,85.270775 c -0.33202,-0.05101 -0.46238,-0.110718 -0.68984,-0.315974 -0.36273,-0.327324 -0.34782,-0.201546 -0.36435,-3.073164 l -0.0147,-2.563151 h -0.2333 -0.2333 v -0.543341 -0.54334 h 0.23624 0.23623 v -0.590587 -0.59059 h 1.08668 1.08669 v 0.59059 0.590587 h 0.3071 0.30711 v 0.541086 0.541086 l -0.2953,0.01408 -0.29529,0.01408 -0.0143,2.007997 c -0.0138,1.940533 0.006,2.61167 0.0791,2.730574 0.0192,0.03109 0.16663,0.0703 0.32759,0.08712 l 0.29265,0.03059 v 0.560234 0.560232 l -0.79139,-0.0059 c -0.43526,-0.0032 -0.89769,-0.02223 -1.02762,-0.04219 z"
       id="path3722" />
    <path
       style="fill:#464646;fill-opacity:1;stroke-width:0.04724703"
       d="m 125.63802,85.429861 c -0.58026,-0.07769 -1.073,-0.265825 -1.42757,-0.545063 -0.35024,-0.27582 -0.55363,-0.907902 -0.55587,-1.727491 l -10e-4,-0.34254 h 0.96857 0.96856 l 2.6e-4,0.460658 c 2.7e-4,0.524938 0.0586,0.79262 0.18769,0.861703 0.14584,0.07805 0.41737,0.05669 0.51454,-0.04047 0.11556,-0.115562 0.1624,-0.517686 0.10254,-0.88029 -0.0573,-0.347176 -0.0636,-0.35275 -1.02932,-0.906164 -1.25974,-0.721934 -1.53096,-0.981604 -1.69368,-1.621554 -0.1114,-0.438124 -0.0724,-1.33218 0.0749,-1.718127 0.18012,-0.471835 0.57462,-0.777785 1.23223,-0.955646 0.41962,-0.113491 1.41627,-0.113491 1.83589,0 0.57951,0.156734 0.95849,0.394692 1.20984,0.75964 0.14018,0.203541 0.17258,0.301603 0.21151,0.640212 0.0253,0.219919 0.0461,0.522105 0.0463,0.671523 l 2.7e-4,0.271669 h -0.96857 -0.96856 l -0.002,-0.34254 c -0.003,-0.423037 -0.0612,-0.742559 -0.1462,-0.796417 -0.0354,-0.02241 -0.14254,-0.04109 -0.2381,-0.04149 -0.27109,-0.0011 -0.36959,0.158411 -0.36959,0.598583 0,0.58793 0.10201,0.695682 1.21248,1.280644 1.02937,0.542242 1.28651,0.756616 1.51374,1.261978 0.0707,0.157154 0.0847,0.316317 0.0833,0.944941 -0.001,0.65723 -0.0151,0.792019 -0.10432,1.032142 -0.19312,0.519509 -0.58642,0.850363 -1.24057,1.043606 -0.26183,0.07735 -1.1108,0.131554 -1.41741,0.0905 z"
       id="path3724" />
    <path
       style="fill:#464646;fill-opacity:1;stroke-width:0.04724703"
       d="m 102.95945,80.877638 v -4.441219 h 1.08668 1.08669 v 0.992188 c 0,0.545703 0.012,0.992187 0.0268,0.992187 0.0147,0 0.0945,-0.05073 0.17718,-0.112723 0.85559,-0.641241 2.13531,-0.455896 2.53365,0.366956 0.15861,0.327641 0.18919,0.952413 0.19049,3.891693 l 0.001,2.752137 h -1.08319 -1.08319 l -0.0153,-2.917502 c -0.0125,-2.391346 -0.0272,-2.938806 -0.0814,-3.035623 -0.0875,-0.156366 -0.14072,-0.187401 -0.32257,-0.188264 -0.11401,-5.29e-4 -0.17358,0.0315 -0.23623,0.127079 -0.0776,0.118312 -0.0848,0.346409 -0.0973,3.071056 l -0.0135,2.943254 h -1.08499 -1.08498 z"
       id="path3726" />
    <path
       style="fill:#464646;fill-opacity:1;stroke-width:0.04724703"
       d="m 99.20162,85.414544 c -0.771991,-0.109625 -1.309177,-0.45743 -1.603463,-1.038172 -0.222916,-0.439907 -0.267986,-0.81052 -0.294767,-2.423994 -0.03853,-2.321139 0.04508,-2.835865 0.539716,-3.322658 1.128027,-1.110147 3.468464,-0.879986 4.124314,0.40559 0.13591,0.266404 0.22975,0.713515 0.26607,1.267735 l 0.0315,0.4801 h -1.04654 -1.04653 V 80.11858 c 0,-0.82125 -0.0459,-0.939596 -0.365079,-0.941112 -0.113956,-5.29e-4 -0.173572,0.03149 -0.23604,0.126833 -0.07557,0.115332 -0.08515,0.30439 -0.09999,1.972564 -0.02291,2.575222 0.0277,2.908065 0.442164,2.908065 0.304905,0 0.400685,-0.300837 0.400685,-1.258496 v -0.584139 h 0.97575 0.97575 l -0.0319,0.636529 c -0.0379,0.754356 -0.13547,1.117997 -0.41076,1.530252 -0.28624,0.428638 -0.66515,0.695928 -1.18797,0.838004 -0.31472,0.08553 -1.05887,0.120566 -1.432826,0.06746 z"
       id="path3728" />
  </g>
</svg>
