<svg height="56" viewBox="0 0 321.32 352.7" width="56" xmlns="http://www.w3.org/2000/svg"><path d="m77.58 223.62a28 28 0 0 0 1.83-2.8c17.15-33.79 48.52-44.85 83-29a100.06 100.06 0 0 1 17.2 10.08c3.89 2.85 7.07 2.9 11.37.2-1.32-5.12-2.71-10.38-4-15.66-6.11-24.71-12.13-49.44-18.3-74.13-3.91-15.74-10.37-30.26-21.45-42.31-1.25-1.37-4.54-2.61-5.82-1.92-12.22 6.52-25.27 5.27-38.2 4.39-9.75-.68-19.21-.47-28.56 2.92-2.31.84-5.1 1.8-7.27 1.23-3.28-.87-7.31-2.3-9-4.83-2.37-3.51-.59-7.7 2.51-10.8 1.16-1.16 2.4-2.26 3.61-3.39-10.4-11.35-10.71-13.38-3.1-27.09 4.52-8.15 9.38-16.11 14.13-24.14 3.47-5.92 9.19-7.2 15.2-5.91a112 112 0 0 1 20 6.07c17 7.2 34.13 14.29 50.54 22.72a90 90 0 0 1 22.86 17.38c19.74 20.28 38.87 41.15 58 62 28.8 31.37 55.47 64.37 75.28 102.37 8.09 15.51 3.31 33.32-11.42 43.12-19.81 13.18-39.47 26.6-59.33 39.72-33.09 21.88-68.8 37.14-108.59 41.41-9.75 1-19.63 1-29.44 1.5-12.83.71-24.43 4-33.66 14-1.84 2-7.19 2.53-10 1.44-8.62-3.31-17.84-6.41-25-12-26.88-21-40-49.34-40-83.33a55.83 55.83 0 0 1 16.63-40.11c12.18-12.33 27.18-14.75 43.4-11.18 5.16 1.13 10 3.46 15.1 5.1 3.19 1 4.08 2.8 3 6a43.85 43.85 0 0 0 -1.23 6.71z" fill="#fff"/></svg>