<svg viewBox="0 0 1199.04 384.48" xmlns="http://www.w3.org/2000/svg"><g fill="#fff"><path d="m847.68 0a3.46 3.46 0 0 0 3.12 2.88c9.2 1.69 16.8 6.54 23.68 12.49a50.12 50.12 0 0 1 13 17.65 65 65 0 0 1 5.82 28.19c-.09 3.75 0 7.52 0 11.27 0 2.47-.33 2.75-2.7 3.12-7.1 1.1-14.06 3.06-21.29 3.35a6.25 6.25 0 0 0 -1.66.26c-5.68 1.87-11.62 2.13-17.48 2.85a11.52 11.52 0 0 0 -2.12.41c-5.23 1.71-10.67 2-16.08 2.53a10.48 10.48 0 0 1 -1.68 0c-1.44-.1-2-.65-2-2.13.07-6.63.06-13.27.31-19.9.21-5.81-.08-6.24-6-6.22q-32.64.08-65.27.14-25.56 0-51.12 0c-2.16 0-4.32-.12-6.47-.16s-3.07.67-3.09 3v13.92q0 60.47 0 121c0 1.92-.06 3.84.06 5.75.21 3.28.7 3.67 4 3.64 7.84-.07 15.68-.17 23.51-.18q46.8 0 93.59 0c2.16 0 4.32.09 6.48.06 3.25-.05 4-1 4-4.26-.06-10.23-.09-20.47 0-30.7 0-4.54-.27-5.1-4.71-5.09q-27.82 0-55.67.16c-4.81 0-5.15-.31-5.13-5.07 0-13.12 0-26.24 0-39.36a37.76 37.76 0 0 1 .18-3.83c.18-1.77.78-2.39 2.52-2.62a16 16 0 0 1 2.4-.06c5.35.06 10.71.18 16.07.18q49 0 97.91 0h8.63c2.27 0 2.75.49 2.89 2.83 0 1 .07 2.07.07 3.11q0 39 0 78a77.17 77.17 0 0 1 -.15 7.91c-.36 3.4-1 6.78-1.63 10.15-1.22 6.55-4.27 12.36-7.6 18a52.38 52.38 0 0 1 -13.38 14.91c-6.1 4.69-13 7.66-20.33 10a51.44 51.44 0 0 1 -15.59 2.14h-143.27c-1.28 0-2.56-.05-3.84 0-9.83.12-18.62-3.2-27-7.92a50.47 50.47 0 0 1 -17-15.19c-3.18-4.53-6-9.26-7.39-14.7-.16-.62-.49-1.18-.67-1.79a32.4 32.4 0 0 1 -1.56-5.51 205.15 205.15 0 0 1 -1.6-22.72c.1-42.56 0-85.12.09-127.67 0-4 .45-8 .74-12 .13-1.75.45-3.49.53-5.25a18.61 18.61 0 0 1 1.91-7.86 7.61 7.61 0 0 0 .6-1.56c1.82-7.43 5.8-13.65 11-19.13a59 59 0 0 1 8.49-7.71c5.41-3.88 11.21-7.1 17.9-8.34 1.82-.33 3.65-.79 4.37-2.87z"/><path d="m201.6 0c-.1 1.83 1 2.63 2.59 2.83 5.66.69 10.49 3.35 15.08 6.43a41 41 0 0 1 14.59 16.81 91.26 91.26 0 0 1 3.9 9.51 30.88 30.88 0 0 1 1.4 7c1.34 14.93.65 29.9.79 44.85.06 7 .12 14.08 0 21.11-.1 5.28-.46 10.55-.84 15.81a22.28 22.28 0 0 1 -1 4.67 49.39 49.39 0 0 1 -7.17 15.6 41.41 41.41 0 0 1 -11 10.57 54.62 54.62 0 0 1 -13 6.56c-1.89.61-3.84 1-5.78 1.49q-3.5.81-7 1.48a32.2 32.2 0 0 1 -5 .73c-4.39.12-8.79.07-13.19.12-1 0-2.41-.5-2.74.69-.22.78.57 1.87 1 2.77.2.41.66.69 1 1 10.56 10.35 21.18 20.62 31.77 30.97q22.6 22.17 45.13 44.42c2.78 2.75 5.49 5.58 8.28 8.32 1.08 1.06 2.28 2 3.44 3 .37.31.87.5 1.14.87.39.55 1 1.25.87 1.79-.15.95-1.15.92-2 .92l-73.65-.05c-.72 0-1.44 0-2.16 0a8.21 8.21 0 0 1 -6.33-2.81c-10.76-10.83-21.62-21.57-32.45-32.34q-19.9-19.79-39.8-39.57-8.67-8.62-17.27-17.33c-1.72-1.75-3.83-2.16-6.14-2.15l-17 .07c-.8 0-1.6 0-2.4 0-2.39.09-3 .66-3 3v14.16q0 36.83 0 73.67a4.17 4.17 0 0 1 0 1.66 3.25 3.25 0 0 1 -1.34 1.45 4.3 4.3 0 0 1 -1.88.19q-29.88 0-59.75 0c-.24 0-.48-.05-.72-.07v-260.2zm-85.93 56.91h-4.56l-44.37-.17c-2.28 0-3 .69-3 3v1.2 40.77c0 1.52-.11 3 0 4.55.16 2.5.58 2.93 3 3.09 2 .13 4 .09 6 .09l68.84.05c6.8 0 13.6.09 20.39-.05 6.08-.13 11.51-2.68 13.28-9.87a33.63 33.63 0 0 0 .95-5.89c.18-3.11.14-6.23.14-9.35 0-4.24 0-8.47-.12-12.71a21.87 21.87 0 0 0 -3.64-11 5.9 5.9 0 0 0 -4.36-3.07 63.13 63.13 0 0 0 -7.39-.62c-15.1-.05-30.13-.02-45.16-.02z"/><path d="m1199 260.16c-1.36 0-2.71.06-4.07.06h-208.93c-2.8 0-5.59.09-8.39.11a19.36 19.36 0 0 1 -2.64-.1c-2.06-.26-2.36-.77-2.28-2.79.09-2.22 0-4.46 0-6.68q0-123.35 0-246.7c0-1.35-.08-2.71-.12-4.07h224.16c0 .4-.07.8-.07 1.2q0 24 0 48c0 1.68.11 3.36.08 5 0 2-.59 2.55-2.56 2.72-1 .09-2.08.05-3.12.05l-146.59-.08c-1.84 0-3.68.06-5.52.19s-2.37.78-2.46 2.58v1.44c0 11.67.09 23.35 0 35 0 4.09.36 4.65 4.36 4.65q24.23 0 48.46 0 24.83 0 49.65-.09c1.7 0 2.36.5 2.52 2.17.1 1 .09 2.08.09 3.12q0 22.55.05 45.1a30.61 30.61 0 0 1 -.18 3.59c-.18 1.53-.58 1.93-2.13 2.08-1.27.12-2.56.09-3.84.09h-90.21c-1.92 0-3.84.06-5.75.15-2.59.12-3.15.76-3.07 3.44 0 1.52.15 3 .16 4.55q0 15.36 0 30.71c0 1.68-.16 3.36-.13 5 0 2.33.72 3 3 3.08h3.6 152.59c1.11 0 2.22-.18 3.33-.27z"/><path d="m467.52 0a16.08 16.08 0 0 0 .76 3.44c3.25 7 6.6 14 9.91 21q7.62 16.14 15.23 32.29 4.54 9.63 9.06 19.3c5.06 10.77 10.15 21.52 15.17 32.31 2.36 5.07 4.58 10.2 6.9 15.29 1 2.18 2.1 4.3 3.13 6.46 4.73 9.87 9.48 19.73 14.15 29.63 2.38 5 4.58 10.2 6.9 15.28 1 2.25 2.18 4.44 3.24 6.68q8.5 18 17 36c2 4.18 4 8.33 6 12.52 3.45 7.37 6.84 14.77 10.3 22.14.78 1.66 1.82 3.19 2.61 4.84 1 2 .53 2.81-1.72 2.91-3.11.13-6.23.17-9.35.17q-25.2 0-50.39 0c-1.76 0-3.52 0-5.28 0a3.82 3.82 0 0 1 -3.56-2.41c-1.77-3.85-3.59-7.67-5.36-11.52q-4.1-8.94-8.14-17.89c-1.48-3.27-3-6.52-4.42-9.82a4 4 0 0 0 -3.75-2.84c-1 0-2.08-.12-3.12-.12h-114.72c-6.13 0-6.68.52-8.78 6.27-1.35 3.67-3.13 7.17-4.73 10.75-2.38 5.32-4.79 10.63-7.13 16q-1.92 4.4-3.65 8.87a3.83 3.83 0 0 1 -3.39 2.63c-1 .1-2.07.2-3.11.2q-27.46 0-54.95-.08c-2.4 0-4.8-.08-7.19-.18a8.8 8.8 0 0 1 -1.82-.45c0-.4-.1-.71 0-.85 2.44-3.17 3.76-6.91 5.39-10.49 1.44-3.19 3.2-6.23 4.81-9.34.19-.35.38-.7.54-1.07q4.14-9 8.28-18.06c1.66-3.63 3.31-7.27 5-10.86 2.5-5.18 5.1-10.31 7.6-15.48 1.39-2.87 2.62-5.82 4-8.69 1.57-3.21 3.26-6.38 4.89-9.56.18-.36.34-.73.5-1.09 1.71-3.78 3.4-7.57 5.12-11.34s3.47-7.55 5.24-11.31c2.86-6.06 5.73-12.13 8.66-18.16 1.53-3.16 3.23-6.24 4.77-9.4 1.39-2.86 2.65-5.78 4-8.68.1-.22.18-.45.28-.66 2.52-5.25 5.07-10.48 7.55-15.74 2.39-5 4.69-10.15 7.08-15.2 1.67-3.54 3.43-7 5.13-10.57 1.42-2.94 2.76-5.93 4.21-8.86 1.61-3.29 3.33-6.54 4.95-9.82.46-.93.71-2 1.16-2.89 1.54-3.23 3.14-6.43 4.7-9.66q1.75-3.67 3.46-7.37c2.56-5.51 5.07-11 7.67-16.52 2.29-4.84 4.73-9.6 7-14.45a15 15 0 0 0 .77-3.55zm-33.12 161.37v.06h38.38c3.19 0 3.93-1 2.8-4-.48-1.27-1.19-2.45-1.74-3.69q-5.28-11.94-10.56-23.88c-3.47-7.81-7-15.6-10.44-23.41-1.95-4.38-3.79-8.81-5.73-13.19-1.48-3.36-3.1-6.66-4.56-10-2.15-5-4.19-10-6.35-15-.25-.57-.92-1-1.4-1.44-.48.48-1.15.89-1.41 1.47-1 2.26-1.83 4.6-2.81 6.87q-2.58 5.95-5.19 11.84c-1.3 2.92-2.72 5.79-4 8.71-2.93 6.56-5.8 13.15-8.73 19.71-1.1 2.48-2.38 4.89-3.42 7.4-3.62 8.79-7.35 17.53-11.61 26-1.32 2.64-2.49 5.36-3.59 8.1-1.47 3.66-.92 4.42 3 4.42z"/><path d="m0 325.44c3-.05 5.91-.07 8.87-.16a5.86 5.86 0 0 1 5.48 2.77c.44.67.92 1.31 1.35 2l12.65 19.75a6.66 6.66 0 0 0 .73 1c1.94 2.18 3.38 1.94 4.66-.66a37.54 37.54 0 0 1 2.5-4.36c2.85-4.24 5.78-8.41 8.65-12.63a14.85 14.85 0 0 0 1.4-2.49c1.59-3.59 4.19-5.55 8.24-5.35 1.83.09 3.67.05 5.5.15 2.11.11 2.58.59 2.87 2.75a15.42 15.42 0 0 1 .13 2.15q0 26.61-.07 53.24c0 .31-.05.63-.08 1h-14.4c.05-1 .15-1.91.16-2.87 0-4.88 0-9.76 0-14.64 0-3 .16-6.07.18-9.11 0-1.08.14-2.28-1.25-3.2a12.92 12.92 0 0 0 -1.71 1.76c-3 4.49-6 9-9.08 13.53-1 1.44-2.18 2.75-3.1 4.23-1.92 3.1-2.44 3.2-4.59.26-3.69-5-7.28-10.12-10.94-15.16a12.22 12.22 0 0 0 -2.07-2.4 2.67 2.67 0 0 0 -1.88-.52c-.26 0-.52 1.07-.51 1.65q.22 11.75.53 23.49c0 1 .12 1.91.18 2.87h-14.4z"/><path d="m1145.28 384.48c.06-1.2.18-2.39.18-3.59q0-24.83 0-49.65a21.59 21.59 0 0 1 .23-3.11c.29-2 .88-2.59 2.91-2.8.87-.08 1.75-.05 2.63-.05 10.24 0 20.47.09 30.71.07a19.9 19.9 0 0 1 8.4 1.63c3.35 1.52 5.71 3.9 5.78 7.8q.17 9.48.1 19c0 5-3.39 7.75-8.33 9.19-1 .29-2.06.4-3 .77-1.26.5-1.47 1.45-.52 2.43s2.22 1.82 3.2 2.86c2.3 2.44 4.51 5 6.76 7.46a24.32 24.32 0 0 0 2.47 2.6 10.07 10.07 0 0 0 2.28 1.12v4.32h-17.28a7.69 7.69 0 0 0 -2.43-4.27c-3.73-4-7.41-8.13-11.1-12.21-1-1.06-1.81-2.23-2.81-3.25a4 4 0 0 0 -4.2-.95c-1.35.77-.9 2.07-.88 3.23.09 5.81.2 11.63.3 17.45zm25.61-33.7v.09c2.64 0 5.27.07 7.9 0 1.82-.06 2.49-.66 2.65-2.44a49.51 49.51 0 0 0 .21-6.67c-.09-2.07-1-2.89-3-2.9q-7.9 0-15.8.18c-2 .06-2.53.72-2.48 2.71s.13 4.15.25 6.22c.14 2.35.57 2.79 2.89 2.83 2.43.02 4.9-.02 7.38-.02z"/><path d="m1029.12 384.48q0-18.24.07-36.48c0-5.84 0-11.68 0-17.52a17.12 17.12 0 0 1 .13-2.15c.29-2.27 1.08-3.08 3.42-3.13 2.15-.05 4.31.19 6.47.19q15.84 0 31.68-.11c1.12 0 2.24 0 3.36.08a2.12 2.12 0 0 1 2.21 2.1q.19 4.67.16 9.35a1.84 1.84 0 0 1 -1.88 1.83c-1.43.14-2.87.26-4.3.26-6.72 0-13.44-.07-20.16-.08-1.28 0-2.56.1-3.83.2a2.1 2.1 0 0 0 -2.19 2.11c-.06 1.83 0 3.67.11 5.5.08 1.27 1.05 1.75 2.17 1.84 1.75.14 3.51.25 5.26.26h11.27c1.72 0 2.38.54 2.43 2.25.06 2.72 0 5.44-.13 8.15-.14 2.12-.77 2.67-2.9 2.69-4.16 0-8.32-.09-12.48-.13-1.12 0-2.24 0-3.35 0a2.14 2.14 0 0 0 -2.23 2.08 53.87 53.87 0 0 0 -.21 6.22c.08 1.9.59 2.36 2.49 2.59a44.5 44.5 0 0 0 5 .28c7.84 0 15.67 0 23.51-.06 1.66 0 2.22.5 2.26 2.35.06 2.64 0 5.28 0 7.92 0 .47.08.95.12 1.43z"/><path d="m564 384.48c0-1.19-.12-2.39-.13-3.58q0-25.32-.07-50.63c0-.16 0-.32 0-.48.07-4.17.77-4.7 5-4.53 4.39.17 8.79.13 13.19.13 5.92 0 11.84.06 17.76-.07a20.2 20.2 0 0 1 9.23 2.25c2.87 1.37 4.18 4.06 5.13 6.93a4.59 4.59 0 0 1 .28 1.41c.06 6.47.38 13 0 19.41a11.69 11.69 0 0 1 -11.28 10.68c-6.08.08-12.15.06-18.23.09-1.44 0-2.89 0-4.32.11-1.87.17-2.3.73-2.29 2.65q.06 7.78.13 15.59zm24.36-31.8v.1h1.91c1.92 0 3.84.05 5.74-.1 2.63-.2 3.58-1.15 3.72-3.76a59.34 59.34 0 0 0 0-6.93c-.12-1.82-.87-2.78-2.67-2.83-5.65-.18-11.31-.14-17-.11a1.71 1.71 0 0 0 -1.78 1.87c0 3 0 6.07.19 9.09.17 2.45 1 3 3.41 3 2.18-.1 4.33-.23 6.48-.33z"/><path d="m140.64 384.48a12 12 0 0 0 -1.67-2.81 14.74 14.74 0 0 1 -4.8-11.34c.05-11.44 0-22.88 0-34.32 0-2.48-.08-5 .09-7.43s.8-3.1 3.26-3.2c3-.11 6.07-.11 9.11-.07 1.71 0 2.24.57 2.48 2.31a24.73 24.73 0 0 1 .15 3.11q0 16.08 0 32.16c0 2.24-.19 4.47-.23 6.71s.31 2.63 2.51 3a8.58 8.58 0 0 0 1.43.16c5.91 0 11.83 0 17.75-.13 2.2 0 2.78-.82 2.77-3q-.09-16.68-.15-33.35c0-1.6 0-3.2-.06-4.8 0-1 0-1.92.07-2.88.25-2.73.9-3.33 3.6-3.36h5.28 2.88c2.13-.05 2.65.41 2.7 2.65.06 3 .07 5.92.07 8.88 0 11.6 0 23.2.09 34.8 0 4.13-1.12 7.53-4.45 10.09a3.19 3.19 0 0 0 -1.58 2.8z"/><path d="m792.48 384.48c.44-3 1.83-5.73 3.16-8.44.49-1 .93-2 1.36-3l5.13-12.39c.33-.81.65-1.62 1-2.44.14-.37.22-.78.38-1.14 1.58-3.65 3.2-7.29 4.77-11 1.45-3.36 2.87-6.75 4.26-10.14 1-2.51 2-5 3-7.57a3.69 3.69 0 0 1 3.32-2.73c3.66-.13 7.33-.13 11 0 1.42 0 2.21 1.21 2.71 2.44 1.25 3.11 2.4 6.27 3.66 9.38 1 2.51 2.13 5 3.2 7.48 2.71 6.31 5.44 12.61 8.11 18.94s5.17 12.38 7.73 18.58c.27.66.43 1.37.64 2.06h-16.91c.45-3-.95-5.44-2.46-7.78a4.53 4.53 0 0 0 -2.35-1.44 8.35 8.35 0 0 0 -2.61-.19q-7.89 0-15.78.13a7.43 7.43 0 0 0 -2.6.28 5 5 0 0 0 -2.38 1.75 12.37 12.37 0 0 0 -2.06 7.25zm31.35-21.84v.1h4.55c2.09 0 2.59-.61 2-2.68s-1.26-4.1-1.92-6.15c-.54-1.67-1.1-3.33-1.66-5a28.1 28.1 0 0 0 -.93-2.72c-.61-1.39-1.65-2.08-2.73-1.91-1.24.2-1.61 1.18-1.9 2.21-.09.31-.11.63-.21.93-.82 2.58-1.66 5.15-2.46 7.73a49 49 0 0 0 -1.37 4.83c-.39 2 .16 2.58 2.26 2.65 1.54.05 2.93.01 4.37.01z"/><path d="m374.4 384.48c0-1.36.12-2.72.13-4.07 0-7.68 0-15.35 0-23 0-4.71.21-9.42.39-14.12.13-3.55-.47-4.33-4-4.4s-7 .05-10.55 0a30.45 30.45 0 0 1 -4.05-.22 1.65 1.65 0 0 1 -1.51-1.84c0-2.3 0-4.61 0-6.91a11.84 11.84 0 0 1 .17-2.15c.36-2.08 1.13-2.66 3.27-2.64 11.19.09 22.38.2 33.57.25 5 0 9.91-.08 14.87-.07 2.83 0 3.36.49 3.52 3.33.14 2.55.16 5.11.12 7.66 0 1.63-.51 2.15-2.11 2.37a26.76 26.76 0 0 1 -3.58.19c-3 0-5.92 0-8.88 0a28.55 28.55 0 0 0 -3.58.22c-1.84.26-2.32.88-2.31 2.71q.09 19.79.21 39.57c0 1 .1 2.07.15 3.11z"/><path d="m926.88 384.48c0-.56.14-1.11.14-1.67 0-6.48 0-12.95.06-19.43a11 11 0 0 0 -2.14-6.7c-5.94-8.43-11.78-16.92-17.61-25.42a30 30 0 0 1 -2.34-4.18c-.57-1.2-.14-1.91 1.18-1.91 4.07 0 8.14.05 12.21.25a4.53 4.53 0 0 1 2.45 1.24 10.14 10.14 0 0 1 1.93 2.43c2.43 4 4.75 8.13 7.22 12.14 1.11 1.82 2.48 3.47 4 5.52a24.09 24.09 0 0 0 2.16-2.19c.76-1 1.38-2.14 2.08-3.21 2.53-3.88 5.15-7.69 7.56-11.64 1.84-3 4.28-4.57 7.87-4.47 2.79.08 5.59-.14 8.38-.22 2-.06 2.51.66 1.46 2.45-1.36 2.33-2.84 4.6-4.41 6.8q-7.45 10.43-15 20.78a12 12 0 0 0 -2.36 7.6c.12 7.28.07 14.55.09 21.83z"/><path d="m683 384.48c.09-1.19.26-2.38.27-3.57q0-23.13 0-46.25c0-1.76-.16-3.52-.13-5.27 0-2.8 1.08-4 3.86-4.13 3.11-.12 6.23.07 9.34.15a2.14 2.14 0 0 1 2.26 2 21.2 21.2 0 0 1 .23 2.86q-.06 16.54-.16 33.08c0 1.83-.21 3.66-.22 5.5 0 2.84.61 3.64 3.47 3.72 6.62.19 13.25.21 19.88.24 2 0 4-.18 6-.22 1.28 0 1.92.44 1.92 1.58 0 3.43-.09 6.85-.14 10.28z"/><path d="m260.64 384.48c.06-1 .17-2.07.17-3.11q0-25.44 0-50.87c0-.24 0-.48 0-.72.09-4 .92-4.73 4.86-4.58 2.39.1 4.8.08 7.19.16 1.89.06 2.4.54 2.59 2.41.1 1 .11 2.07.11 3.11q0 16.92-.06 33.84c0 1.68-.19 3.36-.09 5 .12 2.13.67 2.67 2.74 2.9a36.88 36.88 0 0 0 4.07.23q9.6 0 19.19 0c.79 0 1.58-.22 2.37-.26 1.6-.1 2.15.41 2.17 2.06.05 2.88.05 5.76.1 8.63a6 6 0 0 0 .22 1.17z"/><path d="m476.16 384.48c0-1.27-.1-2.55-.1-3.82q0-25.17-.08-50.32v-.48c.07-4.06.79-4.74 4.76-4.62 2.31.07 4.63.07 6.95.11s2.77.45 2.86 2.82.07 4.95.08 7.43q0 24 0 47.93c0 .31-.05.63-.08 1z"/></g></svg>