<svg viewBox="0 0 16.9 18.44" xmlns="http://www.w3.org/2000/svg"><g transform="translate(-3.73 -1.56)"><path d="m20.28 11.38a7 7 0 0 0 -4.46-8.84l-1.9-.63a7 7 0 0 0 -8.84 4.46l-.31 1c-.18.55.34.84.25 1.13s-.78.48-.88.77l-.31.95a2 2 0 0 0 1.27 2.47l2.9.94-.62 1.9a1 1 0 0 0 .62 1.26l.48.16.27-.95.95.31-.31 1 .95.32.31-.95.95.31-.31.95.47.16a1 1 0 0 0 1.24-.69l.63-1.9 2.85.94a2 2 0 0 0 2.52-1.27l.31-.95c.14-.43-.35-.85-.25-1.14s.71-.27.87-.76zm-9.88-1.07c-1.13 1.86-1.75 1.27-2.72.92s-1.68-.7-1.74-1.23c-.33-.81.7-3.66 2.91-1.74.99.87 1.87 1.58 1.55 2.05zm.93 4.78c-.49-.16-.19-.7-.44-.78s-.38.51-.86.35a.54.54 0 0 1 -.35-.66.31.31 0 0 1 .06-.13 6.59 6.59 0 0 1 1.18-1.18.55.55 0 0 1 .76.06.7.7 0 0 1 .11.23 6.16 6.16 0 0 1 .21 1.64.52.52 0 0 1 -.56.5zm6.08-1.31c-.37.39-1.1.26-2.14 0s-1.84-.19-1.64-2.35c0-.57 1.15-.62 2.47-.73 2.91-.23 2 2.68 1.31 3.13z"/><path d="m9.55 20 .29-.87-.95-.31-.29.87-.95-.32.29-.87-1-.31a2 2 0 0 1 -1.27-2.53l.49-1.5-1.42-.47-.85 2.59a2 2 0 0 0 .33 1.72l1.43 2h4.06z"/><path d="m15.33 20 .86-2.59-1.43-.47-.49 1.5a2 2 0 0 1 -2.53 1.28l-1-.32-.2.61h4.74z"/></g></svg>